<?xml version="1.0" encoding="UTF-8" standalone="no"?>
<!DOCTYPE svg PUBLIC "-//W3C//DTD SVG 1.1//EN" "http://www.w3.org/Graphics/SVG/1.1/DTD/svg11.dtd">
<svg width="100%" height="100%" viewBox="0 0 179 40" version="1.1" xmlns="http://www.w3.org/2000/svg" xmlns:xlink="http://www.w3.org/1999/xlink" xml:space="preserve" xmlns:serif="http://www.serif.com/" style="fill-rule:evenodd;clip-rule:evenodd;stroke-linejoin:round;stroke-miterlimit:2;">
    <g transform="matrix(1,0,0,1,-100,-16.5355)">
        <g transform="matrix(1,0,0,3.02593,0,0)">
            <g transform="matrix(0.263097,0,0,0.0869475,-22.34,21.5064)">
                <path d="M540,-184.5C581.394,-184.5 615,-150.894 615,-109.5C615,-68.106 581.394,-34.5 540,-34.5C498.606,-34.5 465,-68.106 465,-109.5C465,-150.894 498.606,-184.5 540,-184.5ZM582.573,-59.081C596.898,-71.192 606,-89.291 606,-109.5C606,-145.926 576.426,-175.5 540,-175.5C503.574,-175.5 474,-145.926 474,-109.5C474,-89.291 483.102,-71.192 497.427,-59.081C504.832,-76.442 508.432,-91.686 510.08,-103.761C498.798,-105.513 493.279,-107.842 493.279,-107.842C490.985,-108.792 489.892,-111.426 490.842,-113.721C491.792,-116.015 494.426,-117.108 496.721,-116.158C496.721,-116.158 501.42,-114.254 511.018,-112.728C511.238,-115.8 511.329,-118.565 511.339,-120.996C493.808,-122.745 483.748,-125.678 483.748,-125.678C481.363,-126.368 479.987,-128.866 480.678,-131.252C481.368,-133.637 483.866,-135.013 486.252,-134.322C486.252,-134.322 495.23,-131.741 510.964,-130.085C510.771,-132.105 510.577,-133.171 510.577,-133.171C510.119,-135.612 511.73,-137.965 514.171,-138.423C516.612,-138.881 518.965,-137.27 519.423,-134.829C519.423,-134.829 519.794,-132.9 520.067,-129.304C531.148,-128.561 544.616,-128.402 559.959,-129.634C560.228,-133.018 560.577,-134.829 560.577,-134.829C561.035,-137.27 563.388,-138.881 565.829,-138.423C568.27,-137.965 569.881,-135.612 569.423,-133.171C569.423,-133.171 569.256,-132.255 569.078,-130.512C577.012,-131.402 585.38,-132.67 594.12,-134.413C596.555,-134.899 598.927,-133.316 599.413,-130.88C599.899,-128.445 598.316,-126.073 595.88,-125.587C586.357,-123.687 577.259,-122.335 568.66,-121.411C568.661,-118.966 568.744,-116.171 568.959,-113.056C573.79,-113.685 578.87,-114.467 584.201,-115.429C586.646,-115.869 588.988,-114.243 589.429,-111.799C589.869,-109.354 588.243,-107.012 585.799,-106.571C580.232,-105.568 574.924,-104.752 569.874,-104.099C571.501,-91.971 575.098,-76.605 582.573,-59.081ZM504.838,-53.649C515.02,-47.221 527.079,-43.5 540,-43.5C552.921,-43.5 564.98,-47.221 575.162,-53.649C575.055,-53.825 574.958,-54.011 574.873,-54.206C566.615,-73.199 562.674,-89.888 560.919,-103.08C543.552,-101.38 529.623,-101.657 519.024,-102.655C517.241,-89.53 513.296,-72.996 505.127,-54.206C505.042,-54.011 504.945,-53.825 504.838,-53.649ZM559.654,-120.581C544.659,-119.428 531.407,-119.56 520.343,-120.263C520.319,-117.683 520.21,-114.79 519.971,-111.611C529.987,-110.674 543.293,-110.403 559.997,-112.034C559.771,-115.178 559.672,-118.035 559.654,-120.581Z" style="fill:rgb(242,13,94);"/>
            </g>
            <g transform="matrix(0.626876,0,0,0.207168,-167.692,-31.8853)">
                <path d="M514.678,214.277L510.058,214.277C509.769,214.277 509.624,214.217 509.624,214.098C509.624,214.013 509.666,213.89 509.752,213.728C509.837,213.566 509.973,213.29 510.16,212.898L511.487,210.193C511.538,210.091 511.581,209.98 511.615,209.861C511.649,209.742 511.687,209.623 511.73,209.504C511.772,209.385 511.815,209.287 511.857,209.21C511.9,209.134 511.947,209.095 511.998,209.095C512.117,209.095 512.206,209.202 512.266,209.415C512.325,209.627 512.457,209.929 512.661,210.321L514.678,214.277ZM510.67,215.451C510.926,215.451 511.283,215.455 511.742,215.464C512.202,215.472 512.67,215.493 513.146,215.527C513.623,215.561 514.065,215.608 514.473,215.668C514.882,215.727 515.171,215.8 515.341,215.885C515.426,215.919 515.554,216.085 515.724,216.382C515.894,216.68 516.073,217.016 516.26,217.391C516.447,217.765 516.622,218.135 516.783,218.501C516.945,218.867 517.051,219.126 517.102,219.279C517.17,219.501 517.255,219.7 517.357,219.879C517.46,220.058 517.587,220.164 517.74,220.198C517.825,220.232 517.957,220.266 518.136,220.3C518.315,220.334 518.506,220.368 518.71,220.402C518.914,220.436 519.11,220.462 519.297,220.479C519.484,220.496 519.629,220.504 519.731,220.504C519.867,220.504 519.999,220.475 520.127,220.415C520.254,220.356 520.318,220.232 520.318,220.045C520.318,219.994 520.263,219.909 520.152,219.79C520.042,219.671 519.859,219.445 519.604,219.113C519.348,218.782 519.012,218.301 518.595,217.671C518.178,217.042 517.664,216.191 517.051,215.119C516.081,213.417 515.273,211.869 514.626,210.474C513.98,209.078 513.367,207.768 512.789,206.543C512.653,206.254 512.478,206.003 512.266,205.79C512.053,205.578 511.895,205.471 511.793,205.471C511.708,205.471 511.589,205.501 511.436,205.56C511.283,205.62 511.13,205.697 510.977,205.79C510.823,205.884 510.692,205.982 510.581,206.084C510.47,206.186 510.415,206.279 510.415,206.364C510.415,206.416 510.432,206.488 510.466,206.581C510.5,206.675 510.538,206.781 510.581,206.9C510.624,207.02 510.662,207.126 510.696,207.22C510.73,207.313 510.747,207.385 510.747,207.436C510.747,207.828 510.628,208.355 510.39,209.019C510.151,209.683 509.849,210.401 509.484,211.176C509.118,211.95 508.718,212.741 508.284,213.549C507.85,214.358 507.446,215.106 507.072,215.795C506.697,216.484 506.378,217.072 506.114,217.556C505.851,218.041 505.702,218.343 505.668,218.463C505.498,218.922 505.281,219.241 505.017,219.42C504.753,219.598 504.494,219.722 504.238,219.79C504.119,219.824 504.039,219.879 503.996,219.956C503.953,220.032 503.932,220.19 503.932,220.428C503.932,220.513 503.953,220.602 503.996,220.696C504.039,220.789 504.102,220.836 504.187,220.836C504.221,220.836 504.324,220.832 504.494,220.823C504.664,220.815 504.86,220.802 505.081,220.785C505.302,220.768 505.527,220.747 505.757,220.721C505.987,220.696 506.187,220.675 506.357,220.658C506.476,220.641 506.574,220.585 506.65,220.492C506.727,220.398 506.791,220.207 506.842,219.917C506.876,219.764 506.965,219.539 507.11,219.241C507.254,218.943 507.416,218.616 507.595,218.258C507.773,217.901 507.952,217.544 508.131,217.186C508.309,216.829 508.441,216.523 508.526,216.268C508.594,216.063 508.671,215.906 508.756,215.795C508.841,215.685 508.956,215.604 509.101,215.553C509.245,215.502 509.441,215.472 509.688,215.464C509.934,215.455 510.262,215.451 510.67,215.451Z" style="fill:rgb(235,235,235);fill-rule:nonzero;"/>
                <path d="M528.945,212.362L531.523,215.093C532.204,215.825 532.825,216.425 533.386,216.893C533.948,217.361 534.471,217.731 534.956,218.003C535.441,218.275 535.904,218.463 536.347,218.565C536.789,218.667 537.24,218.718 537.7,218.718C538.891,218.718 540.141,218.394 541.452,217.748C542.762,217.101 544.012,216.242 545.203,215.17L546.786,213.741C546.82,213.928 546.867,214.23 546.926,214.647C546.986,215.064 547.054,215.527 547.13,216.038C547.207,216.548 547.284,217.067 547.36,217.595C547.437,218.122 547.501,218.59 547.552,218.999C547.603,219.475 547.683,219.849 547.794,220.122C547.905,220.394 548.062,220.53 548.266,220.53C548.368,220.53 548.504,220.5 548.675,220.441C548.845,220.381 549.011,220.309 549.172,220.224C549.334,220.139 549.474,220.049 549.593,219.956C549.713,219.862 549.772,219.781 549.772,219.713C549.772,219.526 549.7,219.288 549.555,218.999C549.411,218.709 549.249,218.369 549.07,217.978C548.892,217.586 548.73,217.14 548.585,216.638C548.441,216.136 548.368,215.578 548.368,214.966C548.368,214.03 548.402,213.179 548.47,212.414C548.539,211.648 548.619,210.984 548.713,210.423C548.807,209.861 548.887,209.397 548.955,209.032C549.023,208.666 549.058,208.415 549.058,208.279C549.058,208.177 549.011,208.087 548.917,208.011C548.824,207.934 548.713,207.866 548.585,207.807C548.458,207.747 548.33,207.704 548.202,207.679C548.075,207.653 547.977,207.641 547.909,207.641C547.807,207.641 547.709,207.726 547.615,207.896C547.522,208.066 547.424,208.364 547.322,208.789C547.016,210.048 546.484,211.214 545.727,212.286C544.97,213.358 544.131,214.281 543.213,215.055C542.294,215.829 541.362,216.438 540.418,216.88C539.473,217.323 538.652,217.544 537.955,217.544C537.58,217.544 537.159,217.425 536.691,217.186C536.224,216.948 535.73,216.629 535.211,216.229C534.692,215.829 534.169,215.378 533.641,214.877C533.114,214.375 532.608,213.856 532.123,213.32C531.638,212.784 531.187,212.256 530.77,211.737C530.353,211.218 530,210.754 529.711,210.346C529.047,209.376 528.498,208.594 528.065,207.998C527.631,207.402 527.282,206.947 527.018,206.632C526.754,206.318 526.546,206.109 526.393,206.007C526.24,205.905 526.103,205.854 525.984,205.854C525.865,205.854 525.725,205.863 525.563,205.88C525.402,205.897 525.244,205.922 525.091,205.956C524.938,205.99 524.806,206.033 524.695,206.084C524.585,206.135 524.53,206.203 524.53,206.288C524.53,206.509 524.67,206.786 524.951,207.117C525.231,207.449 525.546,207.849 525.895,208.317C526.244,208.785 526.559,209.342 526.839,209.989C527.12,210.635 527.261,211.393 527.261,212.26C527.261,212.686 527.18,213.235 527.018,213.907C526.856,214.579 526.648,215.264 526.393,215.961C526.138,216.659 525.857,217.318 525.55,217.939C525.244,218.56 524.955,219.024 524.683,219.33C524.444,219.603 524.291,219.807 524.223,219.943C524.155,220.079 524.121,220.198 524.121,220.3C524.121,220.368 524.159,220.453 524.236,220.555C524.313,220.658 524.41,220.755 524.53,220.849C524.649,220.943 524.776,221.023 524.912,221.091C525.049,221.16 525.176,221.194 525.295,221.194C525.533,221.194 525.725,221.185 525.87,221.168C526.014,221.151 526.129,221.121 526.214,221.079C526.299,221.036 526.359,220.972 526.393,220.887C526.427,220.802 526.461,220.692 526.495,220.555C526.631,219.892 526.933,218.845 527.401,217.416C527.869,215.987 528.384,214.302 528.945,212.362Z" style="fill:rgb(235,235,235);fill-rule:nonzero;"/>
                <path d="M564.55,214.277L559.93,214.277C559.641,214.277 559.497,214.217 559.497,214.098C559.497,214.013 559.539,213.89 559.624,213.728C559.709,213.566 559.845,213.29 560.033,212.898L561.36,210.193C561.411,210.091 561.453,209.98 561.487,209.861C561.521,209.742 561.56,209.623 561.602,209.504C561.645,209.385 561.687,209.287 561.73,209.21C561.772,209.134 561.819,209.095 561.87,209.095C561.989,209.095 562.079,209.202 562.138,209.415C562.198,209.627 562.33,209.929 562.534,210.321L564.55,214.277ZM560.543,215.451C560.798,215.451 561.156,215.455 561.615,215.464C562.074,215.472 562.542,215.493 563.019,215.527C563.495,215.561 563.938,215.608 564.346,215.668C564.754,215.727 565.044,215.8 565.214,215.885C565.299,215.919 565.426,216.085 565.597,216.382C565.767,216.68 565.945,217.016 566.133,217.391C566.32,217.765 566.494,218.135 566.656,218.501C566.818,218.867 566.924,219.126 566.975,219.279C567.043,219.501 567.128,219.7 567.23,219.879C567.332,220.058 567.46,220.164 567.613,220.198C567.698,220.232 567.83,220.266 568.009,220.3C568.187,220.334 568.379,220.368 568.583,220.402C568.787,220.436 568.983,220.462 569.17,220.479C569.357,220.496 569.502,220.504 569.604,220.504C569.74,220.504 569.872,220.475 569.999,220.415C570.127,220.356 570.191,220.232 570.191,220.045C570.191,219.994 570.136,219.909 570.025,219.79C569.914,219.671 569.731,219.445 569.476,219.113C569.221,218.782 568.885,218.301 568.468,217.671C568.051,217.042 567.536,216.191 566.924,215.119C565.954,213.417 565.146,211.869 564.499,210.474C563.853,209.078 563.24,207.768 562.661,206.543C562.525,206.254 562.351,206.003 562.138,205.79C561.926,205.578 561.768,205.471 561.666,205.471C561.581,205.471 561.462,205.501 561.309,205.56C561.156,205.62 561.002,205.697 560.849,205.79C560.696,205.884 560.564,205.982 560.454,206.084C560.343,206.186 560.288,206.279 560.288,206.364C560.288,206.416 560.305,206.488 560.339,206.581C560.373,206.675 560.411,206.781 560.454,206.9C560.496,207.02 560.535,207.126 560.569,207.22C560.603,207.313 560.62,207.385 560.62,207.436C560.62,207.828 560.5,208.355 560.262,209.019C560.024,209.683 559.722,210.401 559.356,211.176C558.99,211.95 558.59,212.741 558.157,213.549C557.723,214.358 557.319,215.106 556.944,215.795C556.57,216.484 556.251,217.072 555.987,217.556C555.723,218.041 555.574,218.343 555.54,218.463C555.37,218.922 555.153,219.241 554.89,219.42C554.626,219.598 554.366,219.722 554.111,219.79C553.992,219.824 553.911,219.879 553.869,219.956C553.826,220.032 553.805,220.19 553.805,220.428C553.805,220.513 553.826,220.602 553.869,220.696C553.911,220.789 553.975,220.836 554.06,220.836C554.094,220.836 554.196,220.832 554.366,220.823C554.537,220.815 554.732,220.802 554.953,220.785C555.175,220.768 555.4,220.747 555.63,220.721C555.859,220.696 556.059,220.675 556.23,220.658C556.349,220.641 556.447,220.585 556.523,220.492C556.6,220.398 556.663,220.207 556.715,219.917C556.749,219.764 556.838,219.539 556.983,219.241C557.127,218.943 557.289,218.616 557.467,218.258C557.646,217.901 557.825,217.544 558.003,217.186C558.182,216.829 558.314,216.523 558.399,216.268C558.467,216.063 558.544,215.906 558.629,215.795C558.714,215.685 558.829,215.604 558.973,215.553C559.118,215.502 559.314,215.472 559.56,215.464C559.807,215.455 560.135,215.451 560.543,215.451Z" style="fill:rgb(235,235,235);fill-rule:nonzero;"/>
                <path d="M572.82,218.284C572.82,218.624 573.024,218.947 573.432,219.254C573.841,219.56 574.377,219.854 575.04,220.134C575.704,220.415 576.461,220.683 577.312,220.938C578.163,221.194 579.039,221.423 579.941,221.627C580.843,221.832 581.732,222.015 582.608,222.176C583.484,222.338 584.276,222.478 584.982,222.597C585.688,222.716 586.271,222.806 586.73,222.865C587.189,222.925 587.462,222.955 587.547,222.955C587.666,222.955 587.828,222.861 588.032,222.674C588.236,222.487 588.44,222.274 588.644,222.036C588.848,221.798 589.023,221.568 589.167,221.347C589.312,221.125 589.384,220.989 589.384,220.938C589.384,220.853 589.316,220.777 589.18,220.709C589.044,220.641 588.934,220.607 588.848,220.607C588.746,220.607 588.619,220.645 588.466,220.721C588.312,220.798 588.168,220.87 588.032,220.938C587.657,221.194 587.113,221.321 586.398,221.321C585.82,221.321 585.139,221.257 584.356,221.13C583.574,221.002 582.761,220.836 581.919,220.632C581.077,220.428 580.243,220.198 579.418,219.943C578.592,219.688 577.852,219.432 577.197,219.177C576.542,218.922 576.014,218.675 575.615,218.437C575.215,218.199 575.015,218.003 575.015,217.85C575.015,217.748 575.062,217.642 575.155,217.531C575.249,217.42 575.44,217.22 575.729,216.931L583.106,209.427C583.497,209.036 583.808,208.717 584.037,208.47C584.267,208.223 584.446,208.028 584.573,207.883C584.701,207.738 584.786,207.632 584.829,207.564C584.871,207.496 584.892,207.436 584.892,207.385C584.892,207.147 584.833,206.905 584.714,206.658C584.595,206.411 584.492,206.288 584.407,206.288C584.254,206.288 584.105,206.326 583.961,206.403C583.816,206.479 583.676,206.518 583.54,206.518C583.403,206.518 583.148,206.509 582.774,206.492C582.4,206.475 581.961,206.454 581.459,206.428C580.957,206.403 580.413,206.369 579.826,206.326C579.239,206.284 578.656,206.237 578.078,206.186C577.89,206.169 577.707,206.122 577.529,206.045C577.35,205.969 577.176,205.888 577.006,205.803C576.835,205.718 576.67,205.641 576.508,205.573C576.346,205.505 576.197,205.471 576.061,205.471C575.925,205.471 575.797,205.518 575.678,205.612C575.559,205.705 575.457,205.82 575.372,205.956C575.287,206.092 575.219,206.237 575.168,206.39C575.117,206.543 575.091,206.688 575.091,206.824C575.091,206.994 575.138,207.156 575.232,207.309C575.325,207.462 575.483,207.547 575.704,207.564C576.078,207.581 576.529,207.611 577.057,207.653C577.584,207.696 578.146,207.738 578.741,207.781C579.337,207.824 579.949,207.866 580.579,207.909C581.208,207.951 581.804,207.981 582.366,207.998C582.144,208.253 581.817,208.606 581.383,209.057C580.949,209.508 580.464,210.01 579.928,210.563C579.392,211.116 578.822,211.69 578.218,212.286C577.614,212.881 577.035,213.447 576.482,213.983C575.929,214.519 575.427,214.996 574.976,215.413C574.526,215.829 574.173,216.14 573.917,216.344C573.492,216.701 573.203,217.008 573.049,217.263C572.896,217.518 572.82,217.858 572.82,218.284Z" style="fill:rgb(235,235,235);fill-rule:nonzero;"/>
                <path d="M594.515,212.95C594.515,214.294 594.519,215.438 594.527,216.382C594.536,217.327 594.549,218.109 594.566,218.731C594.583,219.352 594.612,219.837 594.655,220.185C594.698,220.534 594.753,220.794 594.821,220.964C594.889,221.134 594.97,221.24 595.063,221.283C595.157,221.325 595.263,221.347 595.382,221.347C595.672,221.347 595.88,221.181 596.008,220.849C596.135,220.517 596.199,219.841 596.199,218.82C596.199,215.757 596.22,213.345 596.263,211.584C596.306,209.823 596.361,208.568 596.429,207.819C596.446,207.53 596.493,207.279 596.569,207.066C596.646,206.854 596.684,206.645 596.684,206.441C596.684,206.339 596.565,206.216 596.327,206.071C596.089,205.926 595.876,205.854 595.689,205.854C595.57,205.854 595.404,205.918 595.191,206.045C594.978,206.173 594.77,206.322 594.566,206.492C594.361,206.662 594.183,206.841 594.03,207.028C593.877,207.215 593.8,207.36 593.8,207.462C593.8,207.598 593.83,207.738 593.889,207.883C593.949,208.028 594.064,208.194 594.234,208.381C594.336,208.5 594.396,208.64 594.413,208.802C594.43,208.964 594.438,209.164 594.438,209.402C594.438,209.844 594.451,210.321 594.476,210.831C594.502,211.342 594.515,212.048 594.515,212.95Z" style="fill:rgb(235,235,235);fill-rule:nonzero;"/>
                <path d="M605.77,213.001C605.77,214.141 605.698,215.132 605.553,215.974C605.409,216.816 605.256,217.531 605.094,218.118C604.932,218.705 604.779,219.173 604.635,219.522C604.49,219.871 604.418,220.13 604.418,220.3C604.418,220.402 604.456,220.496 604.533,220.581C604.609,220.666 604.703,220.743 604.813,220.811C604.924,220.879 605.043,220.93 605.171,220.964C605.298,220.998 605.405,221.015 605.49,221.015C605.694,221.015 605.89,220.921 606.077,220.734C606.264,220.547 606.4,220.258 606.485,219.866C606.604,219.254 606.702,218.565 606.779,217.799C606.855,217.033 606.919,216.272 606.97,215.515C607.021,214.757 607.068,214.056 607.11,213.409C607.153,212.762 607.2,212.252 607.251,211.878C607.557,212.167 607.863,212.443 608.17,212.707C608.476,212.971 608.82,213.247 609.203,213.537C609.586,213.826 610.033,214.141 610.543,214.481C611.054,214.821 611.675,215.217 612.407,215.668C613.138,216.119 614.006,216.638 615.01,217.225C616.014,217.812 617.196,218.497 618.558,219.279C618.813,219.432 619.013,219.62 619.157,219.841C619.302,220.062 619.425,220.27 619.528,220.466C619.63,220.662 619.719,220.832 619.796,220.977C619.872,221.121 619.961,221.194 620.064,221.194C620.183,221.194 620.336,221.168 620.523,221.117C620.71,221.066 620.893,220.985 621.072,220.875C621.25,220.764 621.408,220.624 621.544,220.453C621.68,220.283 621.748,220.088 621.748,219.866C621.748,219.628 621.735,219.381 621.71,219.126C621.684,218.871 621.65,218.577 621.608,218.246C621.565,217.914 621.531,217.531 621.506,217.097C621.48,216.663 621.467,216.157 621.467,215.578C621.467,213.673 621.489,212.163 621.531,211.048C621.574,209.933 621.625,209.074 621.684,208.47C621.744,207.866 621.795,207.445 621.837,207.207C621.88,206.969 621.901,206.781 621.901,206.645C621.901,206.424 621.808,206.284 621.62,206.224C621.433,206.165 621.246,206.135 621.059,206.135C620.906,206.135 620.723,206.152 620.51,206.186C620.298,206.22 620.093,206.267 619.898,206.326C619.702,206.386 619.536,206.467 619.4,206.569C619.264,206.671 619.196,206.798 619.196,206.952C619.196,207.088 619.234,207.207 619.311,207.309C619.387,207.411 619.472,207.53 619.566,207.666C619.659,207.802 619.749,207.972 619.834,208.177C619.919,208.381 619.97,208.653 619.987,208.993C620.021,209.963 620.055,210.916 620.089,211.852C620.123,212.788 620.14,213.817 620.14,214.94C620.14,215.247 620.136,215.532 620.127,215.795C620.119,216.059 620.106,216.319 620.089,216.574C620.072,216.829 620.051,217.101 620.025,217.391C620,217.68 619.97,218.012 619.936,218.386C618.626,217.705 617.413,217.029 616.299,216.357C615.184,215.685 614.083,214.949 612.994,214.149C611.905,213.349 610.794,212.456 609.663,211.469C608.531,210.482 607.293,209.334 605.949,208.023C605.456,207.547 605.064,207.177 604.775,206.913C604.486,206.649 604.26,206.454 604.099,206.326C603.937,206.199 603.826,206.122 603.767,206.096C603.707,206.071 603.652,206.058 603.601,206.058C603.278,206.058 603.005,206.152 602.784,206.339C602.563,206.526 602.452,206.696 602.452,206.849C602.452,206.934 602.474,207.024 602.516,207.117C602.559,207.211 602.648,207.347 602.784,207.526C602.92,207.704 603.116,207.934 603.371,208.215C603.626,208.496 603.967,208.866 604.392,209.325C604.886,209.853 605.239,210.393 605.451,210.946C605.664,211.499 605.77,212.184 605.77,213.001Z" style="fill:rgb(235,235,235);fill-rule:nonzero;"/>
                <path d="M638.006,215.91L637.802,217.442C637.768,217.646 637.67,217.85 637.509,218.054C637.347,218.258 637.126,218.446 636.845,218.616C636.564,218.786 636.233,218.926 635.85,219.037C635.467,219.147 635.046,219.203 634.586,219.203C634.059,219.203 633.565,219.143 633.106,219.024C632.647,218.905 632.242,218.688 631.894,218.373C631.545,218.058 631.273,217.612 631.077,217.033C630.881,216.455 630.783,215.706 630.783,214.787C630.783,213.97 630.945,213.107 631.268,212.197C631.592,211.286 632.034,210.448 632.596,209.683C633.157,208.917 633.808,208.283 634.548,207.781C635.288,207.279 636.075,207.028 636.909,207.028C637.13,207.028 637.317,207.049 637.47,207.092C637.624,207.134 637.785,207.232 637.955,207.385C638.33,207.726 638.581,207.947 638.708,208.049C638.836,208.151 638.959,208.202 639.078,208.202C639.164,208.202 639.274,208.172 639.41,208.113C639.546,208.053 639.683,207.977 639.819,207.883C639.955,207.79 640.074,207.679 640.176,207.551C640.278,207.424 640.329,207.3 640.329,207.181C640.329,206.722 640.074,206.386 639.563,206.173C639.053,205.96 638.313,205.854 637.343,205.854C635.88,205.854 634.62,206.105 633.565,206.607C632.51,207.109 631.638,207.76 630.949,208.559C630.26,209.359 629.754,210.27 629.431,211.29C629.107,212.311 628.946,213.349 628.946,214.404C628.946,214.932 629.035,215.544 629.214,216.242C629.392,216.94 629.703,217.608 630.145,218.246C630.588,218.884 631.187,219.424 631.945,219.866C632.702,220.309 633.667,220.53 634.842,220.53C635.08,220.53 635.335,220.513 635.607,220.479C635.88,220.445 636.135,220.411 636.373,220.377C636.611,220.343 636.82,220.309 636.998,220.275C637.177,220.241 637.3,220.224 637.368,220.224C637.811,220.224 638.066,220.445 638.134,220.887C638.202,221.33 638.266,221.687 638.326,221.959C638.385,222.232 638.449,222.44 638.517,222.585C638.585,222.729 638.653,222.827 638.721,222.878C638.789,222.929 638.874,222.955 638.976,222.955C639.283,222.955 639.483,222.904 639.576,222.802C639.67,222.699 639.717,222.529 639.717,222.291C639.717,221.798 639.678,221.198 639.602,220.492C639.525,219.786 639.487,218.862 639.487,217.722C639.487,217.178 639.483,216.757 639.474,216.459C639.466,216.161 639.44,215.94 639.397,215.795C639.355,215.651 639.3,215.561 639.232,215.527C639.164,215.493 639.078,215.476 638.976,215.476C638.602,215.476 638.355,215.51 638.236,215.578C638.117,215.646 638.041,215.757 638.006,215.91Z" style="fill:rgb(235,235,235);fill-rule:nonzero;"/>
                <path d="M657.94,214.557L657.94,207.334C658.144,207.198 658.417,207.075 658.757,206.964C659.097,206.854 659.412,206.798 659.701,206.798C659.94,206.798 660.305,206.892 660.799,207.079C661.292,207.266 661.79,207.577 662.292,208.011C662.794,208.445 663.232,209.019 663.606,209.734C663.981,210.448 664.168,211.342 664.168,212.414C664.168,213.877 664.036,215.076 663.772,216.012C663.509,216.948 663.138,217.688 662.662,218.233C662.186,218.777 661.62,219.152 660.965,219.356C660.31,219.56 659.582,219.662 658.783,219.662C658.476,219.662 658.255,219.577 658.119,219.407C657.983,219.237 657.915,218.828 657.915,218.182C657.915,217.654 657.919,217.08 657.927,216.459C657.936,215.838 657.94,215.204 657.94,214.557ZM658.578,221.117C658.68,221.117 658.868,221.087 659.14,221.028C659.412,220.968 659.731,220.887 660.097,220.785C660.463,220.683 660.858,220.555 661.284,220.402C661.709,220.249 662.122,220.079 662.522,219.892C662.922,219.705 663.287,219.496 663.619,219.267C663.951,219.037 664.21,218.794 664.398,218.539C664.704,218.114 664.959,217.684 665.163,217.25C665.368,216.816 665.533,216.336 665.661,215.808C665.789,215.281 665.878,214.681 665.929,214.009C665.98,213.337 666.006,212.558 666.006,211.673C666.006,210.703 665.844,209.874 665.521,209.185C665.197,208.496 664.793,207.921 664.308,207.462C663.823,207.003 663.292,206.641 662.713,206.377C662.135,206.113 661.594,205.914 661.092,205.777C660.59,205.641 660.161,205.556 659.803,205.522C659.446,205.488 659.242,205.471 659.191,205.471C659.072,205.471 658.897,205.492 658.668,205.535C658.438,205.578 658.136,205.65 657.762,205.752L655.975,206.262C655.533,206.399 655.248,206.513 655.12,206.607C654.992,206.701 654.928,206.866 654.928,207.105C654.928,207.292 654.975,207.407 655.069,207.449C655.162,207.492 655.265,207.522 655.375,207.539C655.486,207.556 655.596,207.577 655.707,207.602C655.818,207.628 655.89,207.717 655.924,207.87C655.975,208.109 656.026,208.411 656.077,208.776C656.128,209.142 656.175,209.538 656.217,209.963C656.26,210.389 656.294,210.818 656.319,211.252C656.345,211.686 656.358,212.09 656.358,212.465C656.358,213.383 656.341,214.379 656.307,215.451C656.273,216.523 656.23,217.569 656.179,218.59C656.162,218.93 656.111,219.194 656.026,219.381C655.941,219.569 655.852,219.713 655.758,219.815C655.664,219.917 655.579,220.007 655.503,220.083C655.426,220.16 655.388,220.266 655.388,220.402C655.388,220.538 655.452,220.636 655.579,220.696C655.707,220.755 655.915,220.802 656.205,220.836L657.634,221.015C657.77,221.032 657.919,221.053 658.081,221.079C658.242,221.104 658.408,221.117 658.578,221.117Z" style="fill:rgb(235,235,235);fill-rule:nonzero;"/>
                <path d="M674.684,213.46C674.684,212.728 674.777,212.031 674.964,211.367C675.151,210.703 675.424,210.125 675.781,209.631C676.138,209.138 676.581,208.742 677.108,208.445C677.636,208.147 678.231,207.998 678.895,207.998C679.388,207.998 679.865,208.096 680.324,208.291C680.784,208.487 681.192,208.802 681.549,209.236C681.907,209.67 682.196,210.244 682.417,210.959C682.638,211.673 682.749,212.558 682.749,213.613C682.749,214.634 682.617,215.472 682.353,216.127C682.09,216.782 681.758,217.297 681.358,217.671C680.958,218.046 680.537,218.301 680.095,218.437C679.652,218.573 679.252,218.641 678.895,218.641C678.044,218.641 677.347,218.429 676.802,218.003C676.258,217.578 675.828,217.08 675.513,216.51C675.198,215.94 674.981,215.366 674.862,214.787C674.743,214.209 674.684,213.766 674.684,213.46ZM672.846,213.868C672.846,214.923 673.008,215.851 673.331,216.65C673.654,217.45 674.071,218.118 674.581,218.654C675.092,219.19 675.67,219.594 676.317,219.866C676.964,220.139 677.602,220.275 678.231,220.275C679.031,220.275 679.801,220.122 680.541,219.815C681.281,219.509 681.941,219.062 682.519,218.475C683.098,217.888 683.561,217.161 683.91,216.293C684.259,215.425 684.433,214.43 684.433,213.307C684.433,212.133 684.297,211.116 684.025,210.257C683.753,209.397 683.387,208.691 682.928,208.138C682.468,207.585 681.932,207.177 681.32,206.913C680.707,206.649 680.06,206.518 679.38,206.518C678.206,206.518 677.206,206.743 676.381,207.194C675.556,207.645 674.879,208.228 674.352,208.942C673.824,209.657 673.441,210.448 673.203,211.316C672.965,212.184 672.846,213.035 672.846,213.868Z" style="fill:rgb(235,235,235);fill-rule:nonzero;"/>
                <path d="M693.673,214.864L693.673,210.754C693.673,209.665 693.664,208.649 693.647,207.704C693.63,206.76 693.622,206.016 693.622,205.471C693.622,205.267 693.554,205.097 693.418,204.961C693.282,204.825 693.145,204.756 693.009,204.756C692.873,204.756 692.678,204.825 692.422,204.961C692.167,205.097 691.912,205.258 691.657,205.446C691.401,205.633 691.18,205.82 690.993,206.007C690.806,206.194 690.712,206.339 690.712,206.441C690.712,206.594 690.742,206.701 690.802,206.76C690.861,206.82 690.938,206.866 691.031,206.9C691.125,206.934 691.214,206.977 691.299,207.028C691.384,207.079 691.452,207.173 691.503,207.309C691.606,207.615 691.686,207.972 691.746,208.381C691.805,208.789 691.857,209.355 691.899,210.078C691.942,210.801 691.967,211.724 691.976,212.847C691.984,213.97 691.988,215.4 691.988,217.135C691.988,217.969 691.899,218.709 691.72,219.356C691.542,220.002 691.308,220.538 691.019,220.964C690.729,221.389 690.414,221.713 690.074,221.934C689.734,222.155 689.394,222.266 689.053,222.266C688.696,222.266 688.432,222.257 688.262,222.24C688.092,222.223 687.93,222.214 687.777,222.214C687.488,222.214 687.343,222.342 687.343,222.597C687.343,222.733 687.386,222.882 687.471,223.044C687.556,223.206 687.658,223.363 687.777,223.516C687.896,223.669 688.02,223.797 688.147,223.899C688.275,224.001 688.39,224.052 688.492,224.052C688.543,224.052 688.704,224.022 688.977,223.963C689.249,223.903 689.576,223.767 689.959,223.554C690.342,223.342 690.751,223.031 691.184,222.623C691.618,222.214 692.018,221.67 692.384,220.989C692.75,220.309 693.056,219.471 693.303,218.475C693.55,217.48 693.673,216.276 693.673,214.864Z" style="fill:rgb(235,235,235);fill-rule:nonzero;"/>
                <path d="M702.325,213.46C702.325,212.728 702.419,212.031 702.606,211.367C702.793,210.703 703.066,210.125 703.423,209.631C703.78,209.138 704.223,208.742 704.75,208.445C705.278,208.147 705.873,207.998 706.537,207.998C707.03,207.998 707.507,208.096 707.966,208.291C708.425,208.487 708.834,208.802 709.191,209.236C709.548,209.67 709.838,210.244 710.059,210.959C710.28,211.673 710.391,212.558 710.391,213.613C710.391,214.634 710.259,215.472 709.995,216.127C709.731,216.782 709.4,217.297 709,217.671C708.6,218.046 708.179,218.301 707.736,218.437C707.294,218.573 706.894,218.641 706.537,218.641C705.686,218.641 704.988,218.429 704.444,218.003C703.899,217.578 703.47,217.08 703.155,216.51C702.84,215.94 702.623,215.366 702.504,214.787C702.385,214.209 702.325,213.766 702.325,213.46ZM700.488,213.868C700.488,214.923 700.649,215.851 700.973,216.65C701.296,217.45 701.713,218.118 702.223,218.654C702.734,219.19 703.312,219.594 703.959,219.866C704.605,220.139 705.244,220.275 705.873,220.275C706.673,220.275 707.443,220.122 708.183,219.815C708.923,219.509 709.583,219.062 710.161,218.475C710.74,217.888 711.203,217.161 711.552,216.293C711.901,215.425 712.075,214.43 712.075,213.307C712.075,212.133 711.939,211.116 711.667,210.257C711.395,209.397 711.029,208.691 710.569,208.138C710.11,207.585 709.574,207.177 708.961,206.913C708.349,206.649 707.702,206.518 707.022,206.518C705.848,206.518 704.848,206.743 704.023,207.194C703.197,207.645 702.521,208.228 701.994,208.942C701.466,209.657 701.083,210.448 700.845,211.316C700.607,212.184 700.488,213.035 700.488,213.868Z" style="fill:rgb(235,235,235);fill-rule:nonzero;"/>
            </g>
        </g>
    </g>
</svg>
