<?xml version="1.0" encoding="UTF-8" standalone="no"?>
<!DOCTYPE svg PUBLIC "-//W3C//DTD SVG 1.1//EN" "http://www.w3.org/Graphics/SVG/1.1/DTD/svg11.dtd">
<svg width="100%" height="100%" viewBox="0 0 121 121" version="1.1" xmlns="http://www.w3.org/2000/svg" xmlns:xlink="http://www.w3.org/1999/xlink" xml:space="preserve" xmlns:serif="http://www.serif.com/" style="fill-rule:evenodd;clip-rule:evenodd;stroke-linejoin:round;stroke-miterlimit:2;">
    <g transform="matrix(1,0,0,1,-1388.1,-29.163)">
        <g transform="matrix(0.801694,0,0,0.801694,1015.31,177.076)">
            <path d="M540,-184.5C581.394,-184.5 615,-150.894 615,-109.5C615,-68.106 581.394,-34.5 540,-34.5C498.606,-34.5 465,-68.106 465,-109.5C465,-150.894 498.606,-184.5 540,-184.5ZM582.573,-59.081C596.898,-71.192 606,-89.291 606,-109.5C606,-145.926 576.426,-175.5 540,-175.5C503.574,-175.5 474,-145.926 474,-109.5C474,-89.291 483.102,-71.192 497.427,-59.081C504.832,-76.442 508.432,-91.686 510.08,-103.761C498.798,-105.513 493.279,-107.842 493.279,-107.842C490.985,-108.792 489.892,-111.426 490.842,-113.721C491.792,-116.015 494.426,-117.108 496.721,-116.158C496.721,-116.158 501.42,-114.254 511.018,-112.728C511.238,-115.8 511.329,-118.565 511.339,-120.996C493.808,-122.745 483.748,-125.678 483.748,-125.678C481.363,-126.368 479.987,-128.866 480.678,-131.252C481.368,-133.637 483.866,-135.013 486.252,-134.322C486.252,-134.322 495.23,-131.741 510.964,-130.085C510.771,-132.105 510.577,-133.171 510.577,-133.171C510.119,-135.612 511.73,-137.965 514.171,-138.423C516.612,-138.881 518.965,-137.27 519.423,-134.829C519.423,-134.829 519.794,-132.9 520.067,-129.304C531.148,-128.561 544.616,-128.402 559.959,-129.634C560.228,-133.018 560.577,-134.829 560.577,-134.829C561.035,-137.27 563.388,-138.881 565.829,-138.423C568.27,-137.965 569.881,-135.612 569.423,-133.171C569.423,-133.171 569.256,-132.255 569.078,-130.512C577.012,-131.402 585.38,-132.67 594.12,-134.413C596.555,-134.899 598.927,-133.316 599.413,-130.88C599.899,-128.445 598.316,-126.073 595.88,-125.587C586.357,-123.687 577.259,-122.335 568.66,-121.411C568.661,-118.966 568.744,-116.171 568.959,-113.056C573.79,-113.685 578.87,-114.467 584.201,-115.429C586.646,-115.869 588.988,-114.243 589.429,-111.799C589.869,-109.354 588.243,-107.012 585.799,-106.571C580.232,-105.568 574.924,-104.752 569.874,-104.099C571.501,-91.971 575.098,-76.605 582.573,-59.081ZM504.838,-53.649C515.02,-47.221 527.079,-43.5 540,-43.5C552.921,-43.5 564.98,-47.221 575.162,-53.649C575.055,-53.825 574.958,-54.011 574.873,-54.206C566.615,-73.199 562.674,-89.888 560.919,-103.08C543.552,-101.38 529.623,-101.657 519.024,-102.655C517.241,-89.53 513.296,-72.996 505.127,-54.206C505.042,-54.011 504.945,-53.825 504.838,-53.649ZM559.654,-120.581C544.659,-119.428 531.407,-119.56 520.343,-120.263C520.319,-117.683 520.21,-114.79 519.971,-111.611C529.987,-110.674 543.293,-110.403 559.997,-112.034C559.771,-115.178 559.672,-118.035 559.654,-120.581Z" style="fill:rgb(242,13,94);"/>
        </g>
    </g>
</svg>
