<?xml version="1.0" encoding="UTF-8" standalone="no"?>
<!DOCTYPE svg PUBLIC "-//W3C//DTD SVG 1.1//EN" "http://www.w3.org/Graphics/SVG/1.1/DTD/svg11.dtd">
<svg width="100%" height="100%" viewBox="0 0 505 222" version="1.1" xmlns="http://www.w3.org/2000/svg" xmlns:xlink="http://www.w3.org/1999/xlink" xml:space="preserve" xmlns:serif="http://www.serif.com/" style="fill-rule:evenodd;clip-rule:evenodd;stroke-linejoin:round;stroke-miterlimit:2;">
    <g transform="matrix(1,0,0,1,-48,-107)">
        <g transform="matrix(1,0,0,1.30775,-46,-128.395)">
            <rect x="94" y="180" width="505" height="169.757" style="fill:rgb(191,215,252);"/>
            <clipPath id="_clip1">
                <rect x="94" y="180" width="505" height="169.757"/>
            </clipPath>
            <g clip-path="url(#_clip1)">
                <g transform="matrix(1,0,0,0.764671,0,42.3592)">
                    <g id="cloud" transform="matrix(0.875534,0,0,0.875534,222.761,194.476)">
                        <path d="M178.116,53.739C175.343,53.739 172.576,54.015 169.858,54.565C166.681,38.713 152.632,27.201 136.464,27.201C131.524,27.201 126.642,28.276 122.158,30.351C115.562,12.57 98.502,0.702 79.537,0.702C54.599,0.702 34.078,21.223 34.078,46.161C34.078,51.346 34.965,56.492 36.7,61.377C16.462,62.14 0.228,78.997 0.228,99.25C0.228,119.932 17.157,136.991 37.839,137.149L178.119,137.149C200.998,137.149 219.824,118.323 219.824,95.444C219.824,72.565 200.998,53.739 178.119,53.739L178.116,53.739Z" style="fill:white;fill-rule:nonzero;"/>
                    </g>
                    <g id="cloud-2" transform="matrix(0.875534,0,0,0.875534,300.684,194.408)">
                        <path d="M156.075,47.137C153.645,47.137 151.221,47.379 148.839,47.86C146.056,33.969 133.745,23.88 119.578,23.88C115.247,23.88 110.969,24.823 107.039,26.642C101.255,11.068 86.31,0.676 69.697,0.676C47.845,0.676 29.863,18.657 29.863,40.51C29.863,45.048 30.638,49.553 32.156,53.83C14.28,54.307 -0.165,69.142 -0.165,87.024C-0.165,105.24 14.825,120.23 33.041,120.23C33.079,120.23 33.118,120.23 33.156,120.23L156.075,120.23C176.122,120.23 192.619,103.733 192.619,83.686C192.619,63.639 176.122,47.142 156.075,47.142L156.075,47.137Z" style="fill:white;fill-opacity:0.52;fill-rule:nonzero;"/>
                    </g>
                    <g id="cloud-4" transform="matrix(0.606876,0,0,0.606876,70.0006,334.577)">
                        <path d="M33.76,43.577C36.005,43.577 38.244,43.8 40.445,44.245C43.018,31.413 54.391,22.095 67.478,22.095C71.477,22.095 75.429,22.965 79.058,24.645C84.329,10.126 98.204,0.402 113.649,0.402C133.838,0.402 150.45,17.014 150.45,37.202C150.45,41.485 149.702,45.735 148.241,49.76C164.7,50.275 177.959,63.955 177.959,80.422C177.959,97.237 164.134,111.079 147.319,111.099L33.76,111.099C15.239,111.099 -0.001,95.859 -0.001,77.338C-0.001,58.817 15.239,43.577 33.76,43.577Z" style="fill:white;fill-rule:nonzero;"/>
                    </g>
                    <g id="cloud-3" transform="matrix(0.781001,0,0,0.781001,469.456,299.31)">
                        <path d="M26.254,33.975C28,33.975 29.742,34.149 31.454,34.495C33.455,24.516 42.299,17.269 52.477,17.269C55.586,17.269 58.659,17.945 61.481,19.251C65.599,7.996 76.371,0.467 88.356,0.467C104.056,0.467 116.974,13.385 116.974,29.085C116.974,32.391 116.401,35.672 115.281,38.783C128.077,39.188 138.381,49.825 138.381,62.627C138.381,75.699 127.636,86.462 114.564,86.483L26.254,86.483C26.2,86.483 26.146,86.484 26.092,86.484C11.689,86.484 -0.163,74.632 -0.163,60.229C-0.163,45.825 11.689,33.974 26.092,33.974C26.146,33.974 26.2,33.974 26.254,33.974L26.254,33.975Z" style="fill:white;fill-rule:nonzero;"/>
                    </g>
                </g>
            </g>
        </g>
    </g>
</svg>
