<?xml version="1.0" encoding="UTF-8" standalone="no"?>
<!DOCTYPE svg PUBLIC "-//W3C//DTD SVG 1.1//EN" "http://www.w3.org/Graphics/SVG/1.1/DTD/svg11.dtd">
<svg width="100%" height="100%" viewBox="0 0 505 222" version="1.1" xmlns="http://www.w3.org/2000/svg" xmlns:xlink="http://www.w3.org/1999/xlink" xml:space="preserve" xmlns:serif="http://www.serif.com/" style="fill-rule:evenodd;clip-rule:evenodd;stroke-linejoin:round;stroke-miterlimit:2;">
    <g transform="matrix(1,0,0,1,-48,-399)">
        <g transform="matrix(1,0,0,1.30775,-46,163.605)">
            <rect x="94" y="180" width="505" height="169.757" style="fill:rgb(36,48,70);"/>
            <clipPath id="_clip1">
                <rect x="94" y="180" width="505" height="169.757"/>
            </clipPath>
            <g clip-path="url(#_clip1)">
                <g transform="matrix(1,0,0,0.764671,46,-125.104)">
                    <g id="cloud-2" transform="matrix(0.972688,0,0,0.972688,324.164,478.206)">
                        <path d="M28.765,37.187C30.679,37.186 32.589,37.377 34.465,37.756C36.657,26.823 46.347,18.883 57.498,18.883C60.905,18.883 64.273,19.625 67.365,21.056C71.856,8.686 83.678,0.401 96.838,0.401C114.039,0.401 128.193,14.555 128.193,31.756C128.193,35.405 127.556,39.026 126.311,42.456C140.332,42.898 151.626,54.553 151.626,68.581C151.626,82.905 139.85,94.698 125.526,94.719L28.765,94.719C28.708,94.719 28.652,94.719 28.595,94.719C12.815,94.719 -0.171,81.734 -0.171,65.953C-0.171,50.173 12.815,37.187 28.595,37.187C28.652,37.187 28.708,37.188 28.765,37.188L28.765,37.187Z" style="fill:white;fill-opacity:0.04;fill-rule:nonzero;"/>
                    </g>
                    <g id="moon" transform="matrix(0.972688,0,0,0.972688,392.251,417.273)">
                        <path id="Path_1" d="M31.37,80.21C31.375,80.21 31.381,80.21 31.386,80.21C58.164,80.21 80.199,58.175 80.199,31.397C80.199,19.919 76.15,8.801 68.77,0.01C91.326,7.254 106.725,28.372 106.725,52.063C106.725,82.054 82.045,106.734 52.054,106.734C28.362,106.734 7.243,91.333 -0,68.776C8.777,76.17 19.894,80.222 31.37,80.21Z" style="fill:rgb(255,235,152);fill-rule:nonzero;"/>
                        <g id="Path_2" transform="matrix(1,0,0,1,-33.646,-33.634)">
                            <path d="M119.487,42.776C127.063,52.403 131.185,64.304 131.185,76.555C131.185,106.518 106.529,131.174 76.566,131.174C64.315,131.174 52.414,127.052 42.787,119.476C53.136,132.663 68.999,140.379 85.762,140.379C115.73,140.379 140.39,115.719 140.39,85.751C140.39,68.988 132.674,53.125 119.487,42.776Z" style="fill:rgb(239,207,110);fill-rule:nonzero;"/>
                        </g>
                    </g>
                    <g id="cloud-3" transform="matrix(0.972688,0,0,0.972688,402.231,473.342)">
                        <path d="M34.141,44.064C36.412,44.064 38.676,44.29 40.902,44.74C43.503,31.763 55.004,22.338 68.239,22.338C72.284,22.338 76.281,23.218 79.951,24.917C85.281,10.235 99.313,0.402 114.932,0.402C135.348,0.402 152.147,17.201 152.147,37.617C152.147,41.948 151.391,46.246 149.913,50.317C166.548,50.85 179.942,64.68 179.942,81.324C179.942,98.319 165.976,112.313 148.981,112.347L34.141,112.347C34.079,112.347 34.018,112.348 33.956,112.348C15.226,112.348 -0.186,96.935 -0.186,78.206C-0.186,59.476 15.226,44.064 33.956,44.064C34.018,44.064 34.079,44.064 34.141,44.064Z" style="fill:rgb(51,62,83);fill-rule:nonzero;"/>
                    </g>
                    <g id="cloud-4" transform="matrix(0.972688,0,0,0.972688,-20.0202,406.148)">
                        <path d="M124.215,37.595C122.281,37.595 120.352,37.788 118.456,38.171C116.241,27.116 106.443,19.087 95.168,19.087C91.722,19.087 88.318,19.837 85.191,21.284C80.65,8.777 68.697,0.4 55.391,0.4C37.999,0.4 23.688,14.711 23.688,32.103C23.688,35.793 24.332,39.454 25.591,42.922C11.424,43.382 0.021,55.162 0.021,69.336C0.021,83.81 11.911,95.729 26.385,95.764L124.214,95.764C140.169,95.764 153.299,82.635 153.299,66.679C153.299,50.724 140.169,37.595 124.214,37.595L124.215,37.595Z" style="fill:white;fill-opacity:0.06;fill-rule:nonzero;"/>
                    </g>
                    <g id="Group_1" transform="matrix(0.972688,0,0,0.972688,69.3188,427.999)">
                        <g opacity="0.92">
                            <path id="Path_4" d="M234.109,82.84L234.568,83.77L235.595,83.919L234.852,84.643L235.028,85.665L234.11,85.183L233.192,85.665L233.368,84.643L232.625,83.919L233.652,83.77L234.109,82.84Z" style="fill:rgb(255,246,210);fill-rule:nonzero;"/>
                        </g>
                    </g>
                    <g id="Group_2" transform="matrix(0.972688,0,0,0.972688,138.38,396.873)">
                        <g opacity="0.51">
                            <path id="Path_4-2" d="M234.109,82.84L234.568,83.77L235.595,83.919L234.852,84.643L235.028,85.665L234.11,85.183L233.192,85.665L233.368,84.643L232.625,83.919L233.652,83.77L234.109,82.84Z" style="fill:rgb(255,246,210);fill-rule:nonzero;"/>
                        </g>
                    </g>
                    <g id="Group_4" transform="matrix(0.972688,0,0,0.972688,-49.1373,439.145)">
                        <g opacity="0.26">
                            <path id="Path_4-3" d="M234.109,82.84L234.568,83.77L235.595,83.919L234.852,84.643L235.028,85.665L234.11,85.183L233.192,85.665L233.368,84.643L232.625,83.919L233.652,83.77L234.109,82.84Z" style="fill:rgb(255,246,210);fill-rule:nonzero;"/>
                        </g>
                    </g>
                    <g id="Group_6" transform="matrix(0.972688,0,0,0.972688,-49.1373,322.423)">
                        <g opacity="0.92">
                            <path id="Path_4-4" d="M234.109,82.84L234.568,83.77L235.595,83.919L234.852,84.643L235.028,85.665L234.11,85.183L233.192,85.665L233.368,84.643L232.625,83.919L233.652,83.77L234.109,82.84Z" style="fill:rgb(255,246,210);fill-rule:nonzero;"/>
                        </g>
                    </g>
                    <g id="Group_7" transform="matrix(0.972688,0,0,0.972688,119.899,340.457)">
                        <g opacity="0.92">
                            <path id="Path_4-5" d="M234.109,82.84L234.568,83.77L235.595,83.919L234.852,84.643L235.028,85.665L234.11,85.183L233.192,85.665L233.368,84.643L232.625,83.919L233.652,83.77L234.109,82.84Z" style="fill:rgb(255,246,210);fill-opacity:0.45;fill-rule:nonzero;"/>
                        </g>
                    </g>
                    <g id="Group_9" transform="matrix(0.972688,0,0,0.972688,54.7285,497.06)">
                        <g opacity="0.48">
                            <path id="Path_4-6" d="M234.109,82.84L234.568,83.77L235.595,83.919L234.852,84.643L235.028,85.665L234.11,85.183L233.192,85.665L233.368,84.643L232.625,83.919L233.652,83.77L234.109,82.84Z" style="fill:rgb(255,246,210);fill-rule:nonzero;"/>
                        </g>
                    </g>
                    <g id="Group_10">
                    </g>
                    <g id="Group_11" transform="matrix(0.972688,0,0,0.972688,190.905,506.787)">
                        <g opacity="0.46">
                            <path id="Path_4-8" d="M234.109,82.84L234.568,83.77L235.595,83.919L234.852,84.643L235.028,85.665L234.11,85.183L233.192,85.665L233.368,84.643L232.625,83.919L233.652,83.77L234.109,82.84Z" style="fill:rgb(255,246,210);fill-rule:nonzero;"/>
                        </g>
                    </g>
                    <g id="cloud" transform="matrix(0.57378,0,0,0.57378,128.961,511.419)">
                        <path d="M178.116,53.739C175.343,53.739 172.576,54.015 169.858,54.565C166.681,38.713 152.632,27.201 136.464,27.201C131.524,27.201 126.642,28.276 122.158,30.351C115.562,12.57 98.502,0.702 79.537,0.702C54.599,0.702 34.078,21.223 34.078,46.161C34.078,51.346 34.965,56.492 36.7,61.377C16.462,62.14 0.228,78.997 0.228,99.25C0.228,119.932 17.157,136.991 37.839,137.149L178.119,137.149C200.998,137.149 219.824,118.323 219.824,95.444C219.824,72.565 200.998,53.739 178.119,53.739L178.116,53.739Z" style="fill:white;fill-opacity:0.06;fill-rule:nonzero;"/>
                    </g>
                </g>
            </g>
        </g>
    </g>
</svg>
